<?xml version="1.0" encoding="UTF-8" standalone="no"?>
<svg
   id="Layer_1"
   data-name="Layer 1"
   viewBox="0 0 378.01 86.58"
   version="1.1"
   sodipodi:docname="logo.svg"
   inkscape:version="1.2.1 (9c6d41e410, 2022-07-14)"
   xmlns:inkscape="http://www.inkscape.org/namespaces/inkscape"
   xmlns:sodipodi="http://sodipodi.sourceforge.net/DTD/sodipodi-0.dtd"
   xmlns="http://www.w3.org/2000/svg"
   xmlns:svg="http://www.w3.org/2000/svg">
  <sodipodi:namedview
     id="namedview46"
     pagecolor="#ffffff"
     bordercolor="#000000"
     borderopacity="0.25"
     inkscape:showpageshadow="2"
     inkscape:pageopacity="0.0"
     inkscape:pagecheckerboard="0"
     inkscape:deskcolor="#d1d1d1"
     showgrid="false"
     inkscape:zoom="3.4655167"
     inkscape:cx="187.7065"
     inkscape:cy="43.427868"
     inkscape:window-width="1920"
     inkscape:window-height="991"
     inkscape:window-x="-9"
     inkscape:window-y="-9"
     inkscape:window-maximized="1"
     inkscape:current-layer="g2416" />
  <defs
     id="defs4">
    <style
       id="style2">.cls-1,.cls-2{fill:#fff;}.cls-1{fill-rule:evenodd;}.cls-3{fill:#f8b92a;}.cls-4{fill:#ffcd69;}.cls-5{fill:#e2a120;}</style>
  </defs>
  <g
     id="logo">
    <g
       id="Wordmark">
      <g
         id="Layer_2-2"
         data-name="Layer 2-2">
        <g
           id="Layer_1-2"
           data-name="Layer 1-2">
          <path
             class="cls-1"
             d="M 112.35,2.3 A 4.27,4.27 0 0 0 111.61,1.12 3.42,3.42 0 0 0 110.52,0.32 3.66,3.66 0 0 0 109.18,0 H 91.34 A 0.54,0.54 0 0 0 90.91,0.17 0.59,0.59 0 0 0 90.76,0.63 V 22.4 c 0,0.42 0.18,0.61 0.56,0.61 h 4.08 c 0.38,0 0.56,-0.19 0.56,-0.61 V 5.45 h 3.32 v 17 a 0.58,0.58 0 0 0 0.55,0.61 h 3.75 a 0.49,0.49 0 0 0 0.38,-0.17 0.71,0.71 0 0 0 0.15,-0.44 v -17 h 3.31 v 17 a 0.77,0.77 0 0 0 0.14,0.44 A 0.5,0.5 0 0 0 108,23 h 4.11 a 0.58,0.58 0 0 0 0.56,-0.6 v 0 V 3.76 A 3.87,3.87 0 0 0 112.35,2.3 Z"
             id="path6" />
          <path
             class="cls-1"
             d="m 131,17.6 a 0.48,0.48 0 0 0 -0.4,-0.17 H 122 a 0.54,0.54 0 0 1 -0.42,-0.16 0.58,0.58 0 0 1 -0.18,-0.43 V 0.65 c 0,-0.41 -0.2,-0.63 -0.6,-0.63 h -4.3 c -0.4,0 -0.6,0.22 -0.6,0.63 V 22.4 q 0,0.63 0.6,0.63 h 14.08 a 0.49,0.49 0 0 0 0.4,-0.18 0.66,0.66 0 0 0 0.17,-0.45 V 18.06 A 0.69,0.69 0 0 0 131,17.6 Z"
             id="path8" />
          <path
             class="cls-1"
             d="M 152.62,0.2 A 0.56,0.56 0 0 0 152.2,0 h -4.39 a 0.52,0.52 0 0 0 -0.41,0.18 0.59,0.59 0 0 0 -0.18,0.45 V 8 a 0.6,0.6 0 0 1 -0.54,0.63 h -6.19 A 0.53,0.53 0 0 1 139.91,8.17 V 0.65 c 0,-0.41 -0.2,-0.63 -0.6,-0.63 h -4.37 c -0.4,0 -0.6,0.22 -0.6,0.63 v 21.81 c 0,0.41 0.2,0.63 0.6,0.63 h 4.37 c 0.4,0 0.6,-0.22 0.6,-0.63 v -7.75 a 0.75,0.75 0 0 1 0.16,-0.29 0.63,0.63 0 0 1 0.42,-0.16 h 6.15 a 0.54,0.54 0 0 1 0.42,0.16 0.67,0.67 0 0 1 0.16,0.43 v 7.61 a 0.67,0.67 0 0 0 0.18,0.46 0.55,0.55 0 0 0 0.42,0.17 h 4.38 a 0.55,0.55 0 0 0 0.42,-0.17 0.61,0.61 0 0 0 0.18,-0.46 V 0.65 A 0.67,0.67 0 0 0 152.62,0.2 Z"
             id="path10" />
        </g>
      </g>
      <path
         class="cls-2"
         d="M 99,73.26 H 90.76 V 33.7 h 22.67 v 6.87 H 99 v 10.2 h 13.42 v 6.85 H 99 Z"
         id="path14" />
      <path
         class="cls-2"
         d="m 134.22,73.8 q -7.31,0 -11.42,-4 -4.11,-4 -4.12,-11.42 0,-7.6 3.81,-11.76 3.81,-4.16 10.51,-4.18 6.42,0 10,3.65 3.58,3.65 3.57,10.1 v 4 h -19.52 a 8,8 0 0 0 2.08,5.5 7.38,7.38 0 0 0 5.47,2 22.51,22.51 0 0 0 5.17,-0.57 25.62,25.62 0 0 0 5.08,-1.81 v 6.39 a 19.49,19.49 0 0 1 -4.62,1.61 29.56,29.56 0 0 1 -6.01,0.49 z m -1.17,-25.49 a 5.21,5.21 0 0 0 -4.11,1.69 7.66,7.66 0 0 0 -1.7,4.72 h 11.58 a 6.83,6.83 0 0 0 -1.6,-4.72 5.41,5.41 0 0 0 -4.17,-1.69 z"
         id="path16" />
      <path
         class="cls-2"
         d="m 161.52,73.26 h -8.25 V 31.15 h 8.25 z"
         id="path18" />
      <path
         class="cls-2"
         d="m 178.44,73.26 h -8.26 V 31.15 h 8.26 z"
         id="path20" />
      <path
         class="cls-2"
         d="m 214.59,58.08 q 0,7.39 -3.89,11.56 -3.89,4.17 -10.85,4.16 a 15.18,15.18 0 0 1 -7.69,-1.9 12.81,12.81 0 0 1 -5.16,-5.48 18.35,18.35 0 0 1 -1.78,-8.34 q 0,-7.41 3.87,-11.53 3.87,-4.12 10.91,-4.11 a 15.37,15.37 0 0 1 7.68,1.89 12.69,12.69 0 0 1 5.12,5.44 18.36,18.36 0 0 1 1.79,8.31 z m -20.91,0 q 0,4.5 1.47,6.79 a 5.25,5.25 0 0 0 4.8,2.3 5.18,5.18 0 0 0 4.75,-2.28 q 1.45,-2.3 1.45,-6.81 c 0,-3 -0.49,-5.25 -1.46,-6.74 a 6.22,6.22 0 0 0 -8.76,-0.79 5.9,5.9 0 0 0 -0.79,0.79 c -0.98,1.48 -1.46,3.73 -1.46,6.74 z"
         id="path22" />
      <path
         class="cls-2"
         d="M 246.29,73.26 244,62.68 240.86,49.31 h -0.19 l -5.52,24 h -8.88 L 217.63,43 h 8.22 l 3.49,13.39 q 0.84,3.6 1.71,9.93 h 0.16 a 55.06,55.06 0 0 1 0.95,-6.52 l 0.43,-2.3 3.74,-14.5 h 9.09 L 249,57.51 c 0.08,0.4 0.19,1 0.34,1.76 0.15,0.76 0.31,1.6 0.45,2.48 0.14,0.88 0.27,1.73 0.39,2.57 a 19.07,19.07 0 0 1 0.2,2 h 0.17 c 0.16,-1.29 0.45,-3.08 0.86,-5.34 0.41,-2.26 0.72,-3.79 0.9,-4.59 L 255.89,43 H 264 l -8.71,30.25 z"
         id="path24" />
      <path
         class="cls-2"
         d="m 290,64.28 a 8.35,8.35 0 0 1 -3.23,7.09 q -3.24,2.43 -9.67,2.43 a 30.33,30.33 0 0 1 -5.63,-0.44 21.15,21.15 0 0 1 -4.4,-1.36 v -6.77 a 29.58,29.58 0 0 0 5.18,1.77 20.77,20.77 0 0 0 5.08,0.73 q 4.49,0 4.49,-2.6 a 2.11,2.11 0 0 0 -0.6,-1.58 8.11,8.11 0 0 0 -2.05,-1.38 q -1.47,-0.78 -3.9,-1.8 a 24.92,24.92 0 0 1 -5.13,-2.71 7.73,7.73 0 0 1 -2.38,-2.85 9.3,9.3 0 0 1 -0.74,-4 7.17,7.17 0 0 1 3.12,-6.24 c 2.09,-1.47 5.05,-2.2 8.86,-2.2 a 25.23,25.23 0 0 1 10.64,2.38 l -2.49,6 c -1.39,-0.6 -2.81,-1.13 -4.25,-1.59 a 13.22,13.22 0 0 0 -4,-0.63 c -2.44,0 -3.65,0.66 -3.65,2 a 2.33,2.33 0 0 0 1.17,1.92 32.72,32.72 0 0 0 5.16,2.41 24.08,24.08 0 0 1 5.19,2.68 8,8 0 0 1 2.44,2.87 8.89,8.89 0 0 1 0.79,3.87 z"
         id="path26" />
      <path
         class="cls-2"
         d="m 324.33,73.26 h -8.25 V 55.59 c 0,-4.37 -1.62,-6.56 -4.87,-6.55 a 5.55,5.55 0 0 0 -5,2.36 q -1.54,2.35 -1.54,7.63 v 14.23 h -8.25 V 31.15 h 8.25 v 8.58 c 0,0.67 -0.06,2.24 -0.19,4.71 l -0.19,2.44 h 0.43 q 2.76,-4.44 8.77,-4.44 c 3.56,0 6.25,1 8.09,2.87 1.84,1.87 2.76,4.65 2.76,8.22 z"
         id="path28" />
      <path
         class="cls-2"
         d="m 332.48,35.19 q 0,-4 4.49,-4 4.49,0 4.5,4 a 3.94,3.94 0 0 1 -1.13,3 4.75,4.75 0 0 1 -3.34,1.05 c -3,0 -4.51,-1.35 -4.52,-4.05 z m 8.61,38.07 h -8.26 V 43 h 8.26 z"
         id="path30" />
      <path
         class="cls-2"
         d="M 366.36,73.8 A 10,10 0 0 1 358,69.93 h -0.43 c 0.29,2.53 0.43,4 0.43,4.39 v 12.26 h -8.25 V 43 h 6.71 l 1.16,3.92 H 358 a 9.56,9.56 0 0 1 8.58,-4.49 9.83,9.83 0 0 1 8.42,4.15 q 3,4.14 3,11.5 a 22.81,22.81 0 0 1 -1.42,8.42 11.85,11.85 0 0 1 -4.05,5.44 10.38,10.38 0 0 1 -6.17,1.86 z M 363.93,49 a 5.24,5.24 0 0 0 -4.47,1.88 c -0.94,1.26 -1.42,3.33 -1.46,6.21 V 58 q 0,4.86 1.45,7 a 5.15,5.15 0 0 0 4.55,2.12 q 5.53,0 5.54,-9.15 c 0,-3 -0.45,-5.21 -1.36,-6.7 A 4.68,4.68 0 0 0 363.93,49 Z"
         id="path32" />
    </g>
    <g
       id="Icon">
      <rect
         class="cls-3"
         x="39.259998"
         y="39.259998"
         width="34.639999"
         height="34.639999"
         id="rect35" />
      <rect
         class="cls-4"
         y="39.259998"
         width="34.639999"
         height="34.639999"
         id="rect37"
         x="0" />
      <rect
         class="cls-5"
         x="39.259998"
         width="34.639999"
         height="34.639999"
         id="rect39"
         y="0" />
    </g>
  </g>
  <g
     id="g2408">
    <g
       id="g2386"
       data-name="Layer 2-2">
      <g
         id="g2384"
         data-name="Layer 1-2">
        <path
           class="cls-1"
           d="M 112.35,2.3 A 4.27,4.27 0 0 0 111.61,1.12 3.42,3.42 0 0 0 110.52,0.32 3.66,3.66 0 0 0 109.18,0 H 91.34 A 0.54,0.54 0 0 0 90.91,0.17 0.59,0.59 0 0 0 90.76,0.63 V 22.4 c 0,0.42 0.18,0.61 0.56,0.61 h 4.08 c 0.38,0 0.56,-0.19 0.56,-0.61 V 5.45 h 3.32 v 17 a 0.58,0.58 0 0 0 0.55,0.61 h 3.75 a 0.49,0.49 0 0 0 0.38,-0.17 0.71,0.71 0 0 0 0.15,-0.44 v -17 h 3.31 v 17 a 0.77,0.77 0 0 0 0.14,0.44 A 0.5,0.5 0 0 0 108,23 h 4.11 a 0.58,0.58 0 0 0 0.56,-0.6 v 0 V 3.76 A 3.87,3.87 0 0 0 112.35,2.3 Z"
           id="path2378" />
        <path
           class="cls-1"
           d="m 131,17.6 a 0.48,0.48 0 0 0 -0.4,-0.17 H 122 a 0.54,0.54 0 0 1 -0.42,-0.16 0.58,0.58 0 0 1 -0.18,-0.43 V 0.65 c 0,-0.41 -0.2,-0.63 -0.6,-0.63 h -4.3 c -0.4,0 -0.6,0.22 -0.6,0.63 V 22.4 q 0,0.63 0.6,0.63 h 14.08 a 0.49,0.49 0 0 0 0.4,-0.18 0.66,0.66 0 0 0 0.17,-0.45 V 18.06 A 0.69,0.69 0 0 0 131,17.6 Z"
           id="path2380" />
        <path
           class="cls-1"
           d="M 152.62,0.2 A 0.56,0.56 0 0 0 152.2,0 h -4.39 a 0.52,0.52 0 0 0 -0.41,0.18 0.59,0.59 0 0 0 -0.18,0.45 V 8 a 0.6,0.6 0 0 1 -0.54,0.63 h -6.19 A 0.53,0.53 0 0 1 139.91,8.17 V 0.65 c 0,-0.41 -0.2,-0.63 -0.6,-0.63 h -4.37 c -0.4,0 -0.6,0.22 -0.6,0.63 v 21.81 c 0,0.41 0.2,0.63 0.6,0.63 h 4.37 c 0.4,0 0.6,-0.22 0.6,-0.63 v -7.75 a 0.75,0.75 0 0 1 0.16,-0.29 0.63,0.63 0 0 1 0.42,-0.16 h 6.15 a 0.54,0.54 0 0 1 0.42,0.16 0.67,0.67 0 0 1 0.16,0.43 v 7.61 a 0.67,0.67 0 0 0 0.18,0.46 0.55,0.55 0 0 0 0.42,0.17 h 4.38 a 0.55,0.55 0 0 0 0.42,-0.17 0.61,0.61 0 0 0 0.18,-0.46 V 0.65 A 0.67,0.67 0 0 0 152.62,0.2 Z"
           id="path2382" />
      </g>
    </g>
    <path
       class="cls-2"
       d="M 99,73.26 H 90.76 V 33.7 h 22.67 v 6.87 H 99 v 10.2 h 13.42 v 6.85 H 99 Z"
       id="path2388" />
    <path
       class="cls-2"
       d="m 134.22,73.8 q -7.31,0 -11.42,-4 -4.11,-4 -4.12,-11.42 0,-7.6 3.81,-11.76 3.81,-4.16 10.51,-4.18 6.42,0 10,3.65 3.58,3.65 3.57,10.1 v 4 h -19.52 a 8,8 0 0 0 2.08,5.5 7.38,7.38 0 0 0 5.47,2 22.51,22.51 0 0 0 5.17,-0.57 25.62,25.62 0 0 0 5.08,-1.81 v 6.39 a 19.49,19.49 0 0 1 -4.62,1.61 29.56,29.56 0 0 1 -6.01,0.49 z m -1.17,-25.49 a 5.21,5.21 0 0 0 -4.11,1.69 7.66,7.66 0 0 0 -1.7,4.72 h 11.58 a 6.83,6.83 0 0 0 -1.6,-4.72 5.41,5.41 0 0 0 -4.17,-1.69 z"
       id="path2390" />
    <path
       class="cls-2"
       d="m 161.52,73.26 h -8.25 V 31.15 h 8.25 z"
       id="path2392" />
    <path
       class="cls-2"
       d="m 178.44,73.26 h -8.26 V 31.15 h 8.26 z"
       id="path2394" />
    <path
       class="cls-2"
       d="m 214.59,58.08 q 0,7.39 -3.89,11.56 -3.89,4.17 -10.85,4.16 a 15.18,15.18 0 0 1 -7.69,-1.9 12.81,12.81 0 0 1 -5.16,-5.48 18.35,18.35 0 0 1 -1.78,-8.34 q 0,-7.41 3.87,-11.53 3.87,-4.12 10.91,-4.11 a 15.37,15.37 0 0 1 7.68,1.89 12.69,12.69 0 0 1 5.12,5.44 18.36,18.36 0 0 1 1.79,8.31 z m -20.91,0 q 0,4.5 1.47,6.79 a 5.25,5.25 0 0 0 4.8,2.3 5.18,5.18 0 0 0 4.75,-2.28 q 1.45,-2.3 1.45,-6.81 c 0,-3 -0.49,-5.25 -1.46,-6.74 a 6.22,6.22 0 0 0 -8.76,-0.79 5.9,5.9 0 0 0 -0.79,0.79 c -0.98,1.48 -1.46,3.73 -1.46,6.74 z"
       id="path2396" />
    <path
       class="cls-2"
       d="M 246.29,73.26 244,62.68 240.86,49.31 h -0.19 l -5.52,24 h -8.88 L 217.63,43 h 8.22 l 3.49,13.39 q 0.84,3.6 1.71,9.93 h 0.16 a 55.06,55.06 0 0 1 0.95,-6.52 l 0.43,-2.3 3.74,-14.5 h 9.09 L 249,57.51 c 0.08,0.4 0.19,1 0.34,1.76 0.15,0.76 0.31,1.6 0.45,2.48 0.14,0.88 0.27,1.73 0.39,2.57 a 19.07,19.07 0 0 1 0.2,2 h 0.17 c 0.16,-1.29 0.45,-3.08 0.86,-5.34 0.41,-2.26 0.72,-3.79 0.9,-4.59 L 255.89,43 H 264 l -8.71,30.25 z"
       id="path2398" />
    <path
       class="cls-2"
       d="m 290,64.28 a 8.35,8.35 0 0 1 -3.23,7.09 q -3.24,2.43 -9.67,2.43 a 30.33,30.33 0 0 1 -5.63,-0.44 21.15,21.15 0 0 1 -4.4,-1.36 v -6.77 a 29.58,29.58 0 0 0 5.18,1.77 20.77,20.77 0 0 0 5.08,0.73 q 4.49,0 4.49,-2.6 a 2.11,2.11 0 0 0 -0.6,-1.58 8.11,8.11 0 0 0 -2.05,-1.38 q -1.47,-0.78 -3.9,-1.8 a 24.92,24.92 0 0 1 -5.13,-2.71 7.73,7.73 0 0 1 -2.38,-2.85 9.3,9.3 0 0 1 -0.74,-4 7.17,7.17 0 0 1 3.12,-6.24 c 2.09,-1.47 5.05,-2.2 8.86,-2.2 a 25.23,25.23 0 0 1 10.64,2.38 l -2.49,6 c -1.39,-0.6 -2.81,-1.13 -4.25,-1.59 a 13.22,13.22 0 0 0 -4,-0.63 c -2.44,0 -3.65,0.66 -3.65,2 a 2.33,2.33 0 0 0 1.17,1.92 32.72,32.72 0 0 0 5.16,2.41 24.08,24.08 0 0 1 5.19,2.68 8,8 0 0 1 2.44,2.87 8.89,8.89 0 0 1 0.79,3.87 z"
       id="path2400" />
    <path
       class="cls-2"
       d="m 324.33,73.26 h -8.25 V 55.59 c 0,-4.37 -1.62,-6.56 -4.87,-6.55 a 5.55,5.55 0 0 0 -5,2.36 q -1.54,2.35 -1.54,7.63 v 14.23 h -8.25 V 31.15 h 8.25 v 8.58 c 0,0.67 -0.06,2.24 -0.19,4.71 l -0.19,2.44 h 0.43 q 2.76,-4.44 8.77,-4.44 c 3.56,0 6.25,1 8.09,2.87 1.84,1.87 2.76,4.65 2.76,8.22 z"
       id="path2402" />
    <path
       class="cls-2"
       d="m 332.48,35.19 q 0,-4 4.49,-4 4.49,0 4.5,4 a 3.94,3.94 0 0 1 -1.13,3 4.75,4.75 0 0 1 -3.34,1.05 c -3,0 -4.51,-1.35 -4.52,-4.05 z m 8.61,38.07 h -8.26 V 43 h 8.26 z"
       id="path2404" />
    <path
       class="cls-2"
       d="M 366.36,73.8 A 10,10 0 0 1 358,69.93 h -0.43 c 0.29,2.53 0.43,4 0.43,4.39 v 12.26 h -8.25 V 43 h 6.71 l 1.16,3.92 H 358 a 9.56,9.56 0 0 1 8.58,-4.49 9.83,9.83 0 0 1 8.42,4.15 q 3,4.14 3,11.5 a 22.81,22.81 0 0 1 -1.42,8.42 11.85,11.85 0 0 1 -4.05,5.44 10.38,10.38 0 0 1 -6.17,1.86 z M 363.93,49 a 5.24,5.24 0 0 0 -4.47,1.88 c -0.94,1.26 -1.42,3.33 -1.46,6.21 V 58 q 0,4.86 1.45,7 a 5.15,5.15 0 0 0 4.55,2.12 q 5.53,0 5.54,-9.15 c 0,-3 -0.45,-5.21 -1.36,-6.7 A 4.68,4.68 0 0 0 363.93,49 Z"
       id="path2406" />
  </g>
  <g
     id="g2416">
    <rect
       class="cls-3"
       x="39.259998"
       y="39.259998"
       width="34.639999"
       height="34.639999"
       id="rect2410"
       style="fill:#000000" />
    <rect
       class="cls-4"
       y="39.259998"
       width="34.639999"
       height="34.639999"
       id="rect2412"
       x="0"
       style="fill:#ff0000" />
    <rect
       class="cls-5"
       x="39.259998"
       width="34.639999"
       height="34.639999"
       id="rect2414"
       y="0"
       style="fill:#ff0000" />
  </g>
</svg>
